<mxfile host="app.diagrams.net" modified="2023-06-11T21:02:11.139Z" agent="Mozilla/5.0 (Macintosh; Intel Mac OS X 10_15_7) AppleWebKit/605.1.15 (KHTML, like Gecko) Version/16.5 Safari/605.1.15" etag="wGNLmRpFqIImHy9CxVhh" version="21.3.7" type="device">
  <diagram name="Page-1" id="cct-Xmhw9EBGuAuMO9ee">
    <mxGraphModel dx="1363" dy="1146" grid="1" gridSize="10" guides="1" tooltips="1" connect="1" arrows="1" fold="1" page="1" pageScale="1" pageWidth="827" pageHeight="1169" math="0" shadow="0">
      <root>
        <mxCell id="0" />
        <mxCell id="1" parent="0" />
        <mxCell id="uXHMhLncASix-hLU-wDg-52" value="" style="rounded=0;whiteSpace=wrap;html=1;" parent="1" vertex="1">
          <mxGeometry x="600" y="160" width="450" height="260" as="geometry" />
        </mxCell>
        <mxCell id="uXHMhLncASix-hLU-wDg-19" value="" style="rounded=0;whiteSpace=wrap;html=1;" parent="1" vertex="1">
          <mxGeometry x="170" y="160" width="350" height="200" as="geometry" />
        </mxCell>
        <mxCell id="uXHMhLncASix-hLU-wDg-3" style="edgeStyle=orthogonalEdgeStyle;rounded=0;orthogonalLoop=1;jettySize=auto;html=1;entryX=0;entryY=0.5;entryDx=0;entryDy=0;exitX=0.5;exitY=1;exitDx=0;exitDy=0;exitPerimeter=0;" parent="1" source="uXHMhLncASix-hLU-wDg-1" target="uXHMhLncASix-hLU-wDg-2" edge="1">
          <mxGeometry relative="1" as="geometry" />
        </mxCell>
        <mxCell id="uXHMhLncASix-hLU-wDg-1" value="" style="verticalLabelPosition=bottom;shadow=0;dashed=0;align=center;html=1;verticalAlign=top;shape=mxgraph.electrical.radio.aerial_-_antenna_1;" parent="1" vertex="1">
          <mxGeometry x="80" y="120" width="80" height="80" as="geometry" />
        </mxCell>
        <mxCell id="uXHMhLncASix-hLU-wDg-7" style="edgeStyle=orthogonalEdgeStyle;rounded=0;orthogonalLoop=1;jettySize=auto;html=1;entryX=0;entryY=0.5;entryDx=0;entryDy=0;" parent="1" source="uXHMhLncASix-hLU-wDg-2" edge="1">
          <mxGeometry relative="1" as="geometry">
            <mxPoint x="300" y="220" as="targetPoint" />
          </mxGeometry>
        </mxCell>
        <mxCell id="uXHMhLncASix-hLU-wDg-2" value="LNA" style="triangle;whiteSpace=wrap;html=1;" parent="1" vertex="1">
          <mxGeometry x="200" y="190" width="60" height="60" as="geometry" />
        </mxCell>
        <mxCell id="uXHMhLncASix-hLU-wDg-25" style="edgeStyle=orthogonalEdgeStyle;rounded=0;orthogonalLoop=1;jettySize=auto;html=1;entryX=0;entryY=0.5;entryDx=0;entryDy=0;" parent="1" source="uXHMhLncASix-hLU-wDg-12" target="uXHMhLncASix-hLU-wDg-24" edge="1">
          <mxGeometry relative="1" as="geometry" />
        </mxCell>
        <mxCell id="uXHMhLncASix-hLU-wDg-12" value="" style="shape=sumEllipse;perimeter=ellipsePerimeter;whiteSpace=wrap;html=1;backgroundOutline=1;" parent="1" vertex="1">
          <mxGeometry x="300" y="195" width="50" height="50" as="geometry" />
        </mxCell>
        <mxCell id="uXHMhLncASix-hLU-wDg-16" style="edgeStyle=orthogonalEdgeStyle;rounded=0;orthogonalLoop=1;jettySize=auto;html=1;entryX=0.5;entryY=1;entryDx=0;entryDy=0;" parent="1" source="uXHMhLncASix-hLU-wDg-13" target="uXHMhLncASix-hLU-wDg-15" edge="1">
          <mxGeometry relative="1" as="geometry" />
        </mxCell>
        <mxCell id="uXHMhLncASix-hLU-wDg-13" value="" style="perimeter=ellipsePerimeter;verticalLabelPosition=bottom;shadow=0;dashed=0;align=center;html=1;verticalAlign=top;shape=mxgraph.electrical.instruments.signal_generator;" parent="1" vertex="1">
          <mxGeometry x="295" y="370" width="60" height="50" as="geometry" />
        </mxCell>
        <mxCell id="uXHMhLncASix-hLU-wDg-14" value="TXCO" style="text;html=1;strokeColor=none;fillColor=none;align=center;verticalAlign=middle;whiteSpace=wrap;rounded=0;" parent="1" vertex="1">
          <mxGeometry x="295" y="430" width="60" height="30" as="geometry" />
        </mxCell>
        <mxCell id="uXHMhLncASix-hLU-wDg-17" style="edgeStyle=orthogonalEdgeStyle;rounded=0;orthogonalLoop=1;jettySize=auto;html=1;entryX=0.5;entryY=1;entryDx=0;entryDy=0;" parent="1" source="uXHMhLncASix-hLU-wDg-15" target="uXHMhLncASix-hLU-wDg-12" edge="1">
          <mxGeometry relative="1" as="geometry" />
        </mxCell>
        <mxCell id="uXHMhLncASix-hLU-wDg-15" value="PLL" style="rounded=0;whiteSpace=wrap;html=1;" parent="1" vertex="1">
          <mxGeometry x="285" y="300" width="80" height="40" as="geometry" />
        </mxCell>
        <mxCell id="uXHMhLncASix-hLU-wDg-18" value="" style="endArrow=classic;html=1;rounded=0;entryX=1;entryY=0.5;entryDx=0;entryDy=0;" parent="1" target="uXHMhLncASix-hLU-wDg-15" edge="1">
          <mxGeometry width="50" height="50" relative="1" as="geometry">
            <mxPoint x="325" y="280" as="sourcePoint" />
            <mxPoint x="410" y="340" as="targetPoint" />
            <Array as="points">
              <mxPoint x="360" y="280" />
              <mxPoint x="400" y="280" />
              <mxPoint x="400" y="320" />
            </Array>
          </mxGeometry>
        </mxCell>
        <mxCell id="uXHMhLncASix-hLU-wDg-20" value="&lt;b&gt;R820T&lt;/b&gt;" style="text;html=1;strokeColor=none;fillColor=none;align=center;verticalAlign=middle;whiteSpace=wrap;rounded=0;" parent="1" vertex="1">
          <mxGeometry x="170" y="330" width="60" height="30" as="geometry" />
        </mxCell>
        <mxCell id="uXHMhLncASix-hLU-wDg-22" value="Mixer" style="text;html=1;strokeColor=none;fillColor=none;align=center;verticalAlign=middle;whiteSpace=wrap;rounded=0;" parent="1" vertex="1">
          <mxGeometry x="295" y="165" width="60" height="30" as="geometry" />
        </mxCell>
        <mxCell id="uXHMhLncASix-hLU-wDg-38" style="edgeStyle=orthogonalEdgeStyle;rounded=0;orthogonalLoop=1;jettySize=auto;html=1;entryX=0.016;entryY=0.493;entryDx=0;entryDy=0;entryPerimeter=0;" parent="1" source="uXHMhLncASix-hLU-wDg-24" target="uXHMhLncASix-hLU-wDg-39" edge="1">
          <mxGeometry relative="1" as="geometry">
            <mxPoint x="600" y="220" as="targetPoint" />
          </mxGeometry>
        </mxCell>
        <mxCell id="uXHMhLncASix-hLU-wDg-24" value="Filter" style="rounded=0;whiteSpace=wrap;html=1;" parent="1" vertex="1">
          <mxGeometry x="420" y="200" width="80" height="40" as="geometry" />
        </mxCell>
        <mxCell id="uXHMhLncASix-hLU-wDg-37" value="" style="group" parent="1" vertex="1" connectable="0">
          <mxGeometry x="640" y="190" width="50" height="60" as="geometry" />
        </mxCell>
        <mxCell id="uXHMhLncASix-hLU-wDg-32" value="" style="endArrow=none;html=1;rounded=0;" parent="uXHMhLncASix-hLU-wDg-37" edge="1">
          <mxGeometry width="50" height="50" relative="1" as="geometry">
            <mxPoint y="30" as="sourcePoint" />
            <mxPoint x="16.666666666666668" as="targetPoint" />
          </mxGeometry>
        </mxCell>
        <mxCell id="uXHMhLncASix-hLU-wDg-33" value="" style="endArrow=none;html=1;rounded=0;" parent="uXHMhLncASix-hLU-wDg-37" edge="1">
          <mxGeometry width="50" height="50" relative="1" as="geometry">
            <mxPoint y="30" as="sourcePoint" />
            <mxPoint x="16.666666666666668" y="60" as="targetPoint" />
          </mxGeometry>
        </mxCell>
        <mxCell id="uXHMhLncASix-hLU-wDg-34" value="" style="endArrow=none;html=1;rounded=0;" parent="uXHMhLncASix-hLU-wDg-37" edge="1">
          <mxGeometry width="50" height="50" relative="1" as="geometry">
            <mxPoint x="16.666666666666668" as="sourcePoint" />
            <mxPoint x="50" as="targetPoint" />
          </mxGeometry>
        </mxCell>
        <mxCell id="uXHMhLncASix-hLU-wDg-35" value="" style="endArrow=none;html=1;rounded=0;" parent="uXHMhLncASix-hLU-wDg-37" edge="1">
          <mxGeometry width="50" height="50" relative="1" as="geometry">
            <mxPoint x="50" y="60" as="sourcePoint" />
            <mxPoint x="50" as="targetPoint" />
          </mxGeometry>
        </mxCell>
        <mxCell id="uXHMhLncASix-hLU-wDg-36" value="" style="endArrow=none;html=1;rounded=0;" parent="uXHMhLncASix-hLU-wDg-37" edge="1">
          <mxGeometry width="50" height="50" relative="1" as="geometry">
            <mxPoint x="16.666666666666668" y="60" as="sourcePoint" />
            <mxPoint x="50" y="60" as="targetPoint" />
          </mxGeometry>
        </mxCell>
        <mxCell id="uXHMhLncASix-hLU-wDg-39" value="ADC" style="text;html=1;align=center;verticalAlign=middle;resizable=0;points=[];autosize=1;strokeColor=none;fillColor=none;" parent="uXHMhLncASix-hLU-wDg-37" vertex="1">
          <mxGeometry y="15" width="50" height="30" as="geometry" />
        </mxCell>
        <mxCell id="uXHMhLncASix-hLU-wDg-47" style="edgeStyle=orthogonalEdgeStyle;rounded=0;orthogonalLoop=1;jettySize=auto;html=1;entryX=-0.015;entryY=0.465;entryDx=0;entryDy=0;entryPerimeter=0;" parent="1" source="uXHMhLncASix-hLU-wDg-41" target="uXHMhLncASix-hLU-wDg-45" edge="1">
          <mxGeometry relative="1" as="geometry" />
        </mxCell>
        <mxCell id="uXHMhLncASix-hLU-wDg-41" value="" style="shape=sumEllipse;perimeter=ellipsePerimeter;whiteSpace=wrap;html=1;backgroundOutline=1;" parent="1" vertex="1">
          <mxGeometry x="740" y="195" width="50" height="50" as="geometry" />
        </mxCell>
        <mxCell id="uXHMhLncASix-hLU-wDg-48" style="edgeStyle=orthogonalEdgeStyle;rounded=0;orthogonalLoop=1;jettySize=auto;html=1;entryX=0;entryY=0.5;entryDx=0;entryDy=0;" parent="1" source="uXHMhLncASix-hLU-wDg-42" target="uXHMhLncASix-hLU-wDg-46" edge="1">
          <mxGeometry relative="1" as="geometry" />
        </mxCell>
        <mxCell id="uXHMhLncASix-hLU-wDg-42" value="" style="shape=sumEllipse;perimeter=ellipsePerimeter;whiteSpace=wrap;html=1;backgroundOutline=1;" parent="1" vertex="1">
          <mxGeometry x="800" y="250" width="50" height="50" as="geometry" />
        </mxCell>
        <mxCell id="uXHMhLncASix-hLU-wDg-43" style="edgeStyle=orthogonalEdgeStyle;rounded=0;orthogonalLoop=1;jettySize=auto;html=1;entryX=0;entryY=0.5;entryDx=0;entryDy=0;" parent="1" source="uXHMhLncASix-hLU-wDg-39" target="uXHMhLncASix-hLU-wDg-41" edge="1">
          <mxGeometry relative="1" as="geometry" />
        </mxCell>
        <mxCell id="uXHMhLncASix-hLU-wDg-44" style="edgeStyle=orthogonalEdgeStyle;rounded=0;orthogonalLoop=1;jettySize=auto;html=1;entryX=0;entryY=0.5;entryDx=0;entryDy=0;" parent="1" source="uXHMhLncASix-hLU-wDg-39" target="uXHMhLncASix-hLU-wDg-42" edge="1">
          <mxGeometry relative="1" as="geometry">
            <Array as="points">
              <mxPoint x="710" y="220" />
              <mxPoint x="710" y="275" />
            </Array>
          </mxGeometry>
        </mxCell>
        <mxCell id="uXHMhLncASix-hLU-wDg-55" style="edgeStyle=orthogonalEdgeStyle;rounded=0;orthogonalLoop=1;jettySize=auto;html=1;entryX=0.005;entryY=0.208;entryDx=0;entryDy=0;entryPerimeter=0;" parent="1" source="uXHMhLncASix-hLU-wDg-45" target="uXHMhLncASix-hLU-wDg-53" edge="1">
          <mxGeometry relative="1" as="geometry" />
        </mxCell>
        <mxCell id="uXHMhLncASix-hLU-wDg-45" value="Filter I" style="rounded=0;whiteSpace=wrap;html=1;" parent="1" vertex="1">
          <mxGeometry x="867" y="201" width="80" height="40" as="geometry" />
        </mxCell>
        <mxCell id="uXHMhLncASix-hLU-wDg-54" style="edgeStyle=orthogonalEdgeStyle;rounded=0;orthogonalLoop=1;jettySize=auto;html=1;entryX=0;entryY=0.75;entryDx=0;entryDy=0;" parent="1" source="uXHMhLncASix-hLU-wDg-46" target="uXHMhLncASix-hLU-wDg-53" edge="1">
          <mxGeometry relative="1" as="geometry" />
        </mxCell>
        <mxCell id="uXHMhLncASix-hLU-wDg-46" value="Filter Q" style="rounded=0;whiteSpace=wrap;html=1;" parent="1" vertex="1">
          <mxGeometry x="910" y="255" width="80" height="40" as="geometry" />
        </mxCell>
        <mxCell id="uXHMhLncASix-hLU-wDg-50" style="edgeStyle=orthogonalEdgeStyle;rounded=0;orthogonalLoop=1;jettySize=auto;html=1;entryX=0.5;entryY=1;entryDx=0;entryDy=0;" parent="1" source="uXHMhLncASix-hLU-wDg-49" target="uXHMhLncASix-hLU-wDg-42" edge="1">
          <mxGeometry relative="1" as="geometry" />
        </mxCell>
        <mxCell id="uXHMhLncASix-hLU-wDg-51" style="edgeStyle=orthogonalEdgeStyle;rounded=0;orthogonalLoop=1;jettySize=auto;html=1;entryX=0.5;entryY=1;entryDx=0;entryDy=0;" parent="1" source="uXHMhLncASix-hLU-wDg-49" target="uXHMhLncASix-hLU-wDg-41" edge="1">
          <mxGeometry relative="1" as="geometry" />
        </mxCell>
        <mxCell id="uXHMhLncASix-hLU-wDg-49" value="" style="perimeter=ellipsePerimeter;verticalLabelPosition=bottom;shadow=0;dashed=0;align=center;html=1;verticalAlign=top;shape=mxgraph.electrical.instruments.signal_generator;" parent="1" vertex="1">
          <mxGeometry x="795" y="330" width="60" height="50" as="geometry" />
        </mxCell>
        <mxCell id="uXHMhLncASix-hLU-wDg-64" style="edgeStyle=orthogonalEdgeStyle;rounded=0;orthogonalLoop=1;jettySize=auto;html=1;" parent="1" source="uXHMhLncASix-hLU-wDg-53" edge="1">
          <mxGeometry relative="1" as="geometry">
            <mxPoint x="1100" y="250" as="targetPoint" />
          </mxGeometry>
        </mxCell>
        <mxCell id="uXHMhLncASix-hLU-wDg-53" value="USB" style="rounded=0;whiteSpace=wrap;html=1;" parent="1" vertex="1">
          <mxGeometry x="1010" y="200" width="40" height="100" as="geometry" />
        </mxCell>
        <mxCell id="uXHMhLncASix-hLU-wDg-56" value="&lt;b&gt;RTL2832U&lt;/b&gt;" style="text;html=1;strokeColor=none;fillColor=none;align=center;verticalAlign=middle;whiteSpace=wrap;rounded=0;" parent="1" vertex="1">
          <mxGeometry x="970" y="390" width="80" height="30" as="geometry" />
        </mxCell>
        <mxCell id="uXHMhLncASix-hLU-wDg-57" value="28.8Mhz" style="text;html=1;strokeColor=none;fillColor=none;align=center;verticalAlign=middle;whiteSpace=wrap;rounded=0;fontColor=#006600;fontStyle=1;fontSize=16;" parent="1" vertex="1">
          <mxGeometry x="230" y="380" width="65" height="30" as="geometry" />
        </mxCell>
        <mxCell id="uXHMhLncASix-hLU-wDg-58" value="146Mhz" style="text;html=1;strokeColor=none;fillColor=none;align=center;verticalAlign=middle;whiteSpace=wrap;rounded=0;fontColor=#006600;fontStyle=1;fontSize=16;" parent="1" vertex="1">
          <mxGeometry x="80" y="225" width="80" height="30" as="geometry" />
        </mxCell>
        <mxCell id="uXHMhLncASix-hLU-wDg-59" value="144Mhz" style="text;html=1;strokeColor=none;fillColor=none;align=center;verticalAlign=middle;whiteSpace=wrap;rounded=0;fontColor=#006600;fontStyle=1;fontSize=16;" parent="1" vertex="1">
          <mxGeometry x="250" y="260" width="70" height="30" as="geometry" />
        </mxCell>
        <mxCell id="uXHMhLncASix-hLU-wDg-67" style="edgeStyle=orthogonalEdgeStyle;rounded=0;orthogonalLoop=1;jettySize=auto;html=1;" parent="1" source="uXHMhLncASix-hLU-wDg-60" edge="1">
          <mxGeometry relative="1" as="geometry">
            <mxPoint x="380" y="220" as="targetPoint" />
          </mxGeometry>
        </mxCell>
        <mxCell id="uXHMhLncASix-hLU-wDg-60" value="2Mhz" style="text;html=1;strokeColor=none;fillColor=none;align=center;verticalAlign=middle;whiteSpace=wrap;rounded=0;fontColor=#006600;fontStyle=1;fontSize=16;labelBorderColor=none;" parent="1" vertex="1">
          <mxGeometry x="270" y="100" width="220" height="30" as="geometry" />
        </mxCell>
        <mxCell id="uXHMhLncASix-hLU-wDg-68" style="edgeStyle=orthogonalEdgeStyle;rounded=0;orthogonalLoop=1;jettySize=auto;html=1;" parent="1" source="uXHMhLncASix-hLU-wDg-61" edge="1">
          <mxGeometry relative="1" as="geometry">
            <mxPoint x="560" y="220" as="targetPoint" />
          </mxGeometry>
        </mxCell>
        <mxCell id="uXHMhLncASix-hLU-wDg-61" value="2Mhz" style="text;html=1;strokeColor=none;fillColor=none;align=center;verticalAlign=middle;whiteSpace=wrap;rounded=0;fontColor=#006600;fontStyle=1;fontSize=16;" parent="1" vertex="1">
          <mxGeometry x="490" y="130" width="140" height="30" as="geometry" />
        </mxCell>
        <mxCell id="uXHMhLncASix-hLU-wDg-62" value="5Mhz" style="text;html=1;strokeColor=none;fillColor=none;align=center;verticalAlign=middle;whiteSpace=wrap;rounded=0;fontColor=#006600;fontStyle=1;fontSize=16;" parent="1" vertex="1">
          <mxGeometry x="855" y="340" width="45" height="30" as="geometry" />
        </mxCell>
        <mxCell id="r8cqNl2RwDVRbnKYFYu5-1" style="edgeStyle=orthogonalEdgeStyle;rounded=0;orthogonalLoop=1;jettySize=auto;html=1;" edge="1" parent="1" source="uXHMhLncASix-hLU-wDg-63">
          <mxGeometry relative="1" as="geometry">
            <mxPoint x="700" y="220" as="targetPoint" />
          </mxGeometry>
        </mxCell>
        <mxCell id="uXHMhLncASix-hLU-wDg-63" value="225KSPS-3.2MSPS" style="text;html=1;strokeColor=none;fillColor=none;align=center;verticalAlign=middle;whiteSpace=wrap;rounded=0;fontColor=#006600;fontStyle=1;fontSize=16;" parent="1" vertex="1">
          <mxGeometry x="620" y="100" width="162.5" height="30" as="geometry" />
        </mxCell>
        <mxCell id="uXHMhLncASix-hLU-wDg-65" value="225KSPS-3.2MSPS" style="text;html=1;strokeColor=none;fillColor=none;align=center;verticalAlign=middle;whiteSpace=wrap;rounded=0;fontColor=#006600;fontStyle=1;fontSize=16;" parent="1" vertex="1">
          <mxGeometry x="1060" y="210" width="150" height="30" as="geometry" />
        </mxCell>
        <mxCell id="uXHMhLncASix-hLU-wDg-66" value="28.8Mhz" style="text;html=1;strokeColor=none;fillColor=none;align=center;verticalAlign=middle;whiteSpace=wrap;rounded=0;fontColor=#006600;fontStyle=1;fontSize=16;" parent="1" vertex="1">
          <mxGeometry x="640" y="255" width="55" height="30" as="geometry" />
        </mxCell>
        <mxCell id="uXHMhLncASix-hLU-wDg-69" value="Mixer 0°" style="text;html=1;strokeColor=none;fillColor=none;align=center;verticalAlign=middle;whiteSpace=wrap;rounded=0;" parent="1" vertex="1">
          <mxGeometry x="735" y="165" width="60" height="30" as="geometry" />
        </mxCell>
        <mxCell id="uXHMhLncASix-hLU-wDg-70" value="Mixer 90°" style="text;html=1;strokeColor=none;fillColor=none;align=center;verticalAlign=middle;whiteSpace=wrap;rounded=0;" parent="1" vertex="1">
          <mxGeometry x="795" y="225" width="60" height="30" as="geometry" />
        </mxCell>
      </root>
    </mxGraphModel>
  </diagram>
</mxfile>
